<svg width="54" height="54" viewBox="0 0 54 54" fill="none" xmlns="http://www.w3.org/2000/svg">
<path d="M52.3161 29.9724C53.1542 29.1343 53.625 27.9977 53.625 26.8125C53.625 25.6273 53.1542 24.4907 52.3161 23.6526C51.4781 22.8146 50.3414 22.3438 49.1562 22.3438H31.2813V4.46875C31.2813 3.28356 30.8104 2.14692 29.9724 1.30887C29.1343 0.470815 27.9977 0 26.8125 0C25.6273 0 24.4907 0.470815 23.6526 1.30887C22.8146 2.14692 22.3438 3.28356 22.3438 4.46875V22.3438H4.46875C3.28357 22.3438 2.14692 22.8146 1.30887 23.6526C0.470813 24.4907 0 25.6273 0 26.8125C0 27.9977 0.470813 29.1343 1.30887 29.9724C2.14692 30.8104 3.28357 31.2812 4.46875 31.2812H22.3438V49.1562C22.3438 50.3414 22.8146 51.4781 23.6526 52.3161C24.4907 53.1542 25.6273 53.625 26.8125 53.625C27.9977 53.625 29.1343 53.1542 29.9724 52.3161C30.8104 51.4781 31.2813 50.3414 31.2813 49.1562V31.2812H49.1562C50.3414 31.2812 51.4781 30.8104 52.3161 29.9724Z" fill="#02006B"/>
</svg>
